<?xml version="1.0" encoding="utf-8"?>
<!-- Generator: Adobe Illustrator 21.0.2, SVG Export Plug-In . SVG Version: 6.00 Build 0)  -->
<svg version="1.1" id="Layer_1" xmlns="http://www.w3.org/2000/svg" xmlns:xlink="http://www.w3.org/1999/xlink" x="0px" y="0px"
	 viewBox="0 0 1366 768" style="enable-background:new 0 0 1366 768;" xml:space="preserve">
<style type="text/css">
	.st0{fill:none;}
	.st1{font-family:'AmericanCaptain';}
	.st2{font-size:48px;}
	.st3{font-family:'DINCond-Regular';}
	.st4{font-size:14px;}
	.st5{font-family:'DINCond-Medium';}
	.st6{font-size:21px;}
	.st7{fill:#DCE2E8;}
	.st8{opacity:0.5;fill:none;stroke:#000000;stroke-width:0.5;stroke-miterlimit:10;}
	.st9{fill:none;stroke:#000000;stroke-width:0.5;stroke-miterlimit:10;}
	.st10{fill:none;stroke:#000000;stroke-width:2;stroke-miterlimit:10;}
	.st11{fill:none;stroke:#808080;stroke-width:0.75;stroke-miterlimit:10;}
	.st12{font-family:'DINCondensed-Bold';}
	.st13{font-size:22px;}
	.st14{font-family:'Carre';}
	.st15{font-family:'MyriadPro-Regular';}
	.st16{opacity:0.67;fill:#C03639;}
	.st17{font-size:18px;}
	.st18{fill:none;stroke:#999999;stroke-miterlimit:10;}
</style>
<rect x="10" y="61" class="st0" width="109" height="38"/>
<text transform="matrix(1 0 0 1 20.3408 95.7998)" class="st1 st2"> 2004</text>
<rect x="1162" y="111" class="st0" width="177" height="60"/>
<text transform="matrix(1 0 0 1 1162 120.9678)"><tspan x="0" y="0" class="st3 st4">In 2004, the first DARPA challenge was </tspan><tspan x="0" y="16.8" class="st3 st4">held in the Mojave Desert. None of the </tspan><tspan x="0" y="33.6" class="st3 st4">autonomous vehicles finished the race.</tspan></text>
<rect x="8" y="314" class="st0" width="107" height="40"/>
<text transform="matrix(1 0 0 1 18.9487 348.7998)" class="st1 st2"> 2005</text>
<rect x="-13" y="585" class="st0" width="158" height="36"/>
<text transform="matrix(1 0 0 1 23.6172 619.7998)" class="st1 st2"> 2007</text>
<rect x="25.6" y="119.1" class="st0" width="169.5" height="78.9"/>
<text transform="matrix(1 0 0 1 25.6099 134.0566)"><tspan x="0" y="0" class="st5 st6">Terrain: Highway</tspan><tspan x="0" y="25.2" class="st5 st6">Distance: 150 miles</tspan><tspan x="0" y="50.4" class="st5 st6">Course Time Limit: 10hrs</tspan></text>
<rect x="479" y="315" class="st7" width="648" height="36"/>
<line class="st8" x1="623.5" y1="314.5" x2="623.5" y2="351.5"/>
<line class="st9" x1="803.5" y1="300" x2="803.5" y2="351.5"/>
<line class="st9" x1="983.5" y1="314.5" x2="983.5" y2="351.5"/>
<line class="st9" x1="1126.5" y1="298" x2="1126.5" y2="350.5"/>
<line class="st10" x1="479" y1="315" x2="1127" y2="315"/>
<line class="st11" x1="1127.5" y1="355.5" x2="477.5" y2="356.5"/>
<rect x="384" y="322" class="st0" width="73" height="23"/>
<text transform="matrix(1 0 0 1 384 337.6636)" class="st12 st13"> Stanford</text>
<rect x="249" y="368" class="st0" width="218" height="22"/>
<text transform="matrix(1 0 0 1 249 383.6636)" class="st12 st13"> Carnegie Mellon, Sandstorm</text>
<rect x="251" y="411.6" class="st0" width="218" height="23.4"/>
<text transform="matrix(1 0 0 1 251 427.2622)" class="st12 st13">Carnegie Mellon, H1ghlander</text>
<rect x="244" y="455.6" class="st0" width="228" height="23.4"/>
<text transform="matrix(1 0 0 1 244 471.2622)" class="st12 st13">The Gray Insurance Company</text>
<rect x="456.3" y="272" class="st0" width="52.7" height="27"/>
<text transform="matrix(1 0 0 1 460.3511 289.8496)"><tspan x="0" y="0" class="st14 st6">0</tspan><tspan x="12.7" y="0" class="st15 st4"> </tspan><tspan x="15.6" y="0" class="st5 st6">mph</tspan></text>
<rect x="768.3" y="276" class="st0" width="80.7" height="20"/>
<text transform="matrix(1 0 0 1 771.1367 293.8496)"><tspan x="0" y="0" class="st14 st6">32</tspan><tspan x="25.8" y="0" class="st15 st6">.</tspan><tspan x="30.2" y="0" class="st14 st6">5</tspan><tspan x="43.1" y="0" class="st15 st4"> </tspan><tspan x="46.1" y="0" class="st5 st6">mph</tspan></text>
<rect x="1088" y="272" class="st0" width="64" height="27"/>
<text transform="matrix(1 0 0 1 1090.9399 289.8496)"><tspan x="0" y="0" class="st14 st6">65</tspan><tspan x="26.5" y="0" class="st5 st4"> </tspan><tspan x="29.1" y="0" class="st5 st6">mph</tspan></text>
<line class="st9" x1="479.2" y1="299.8" x2="478.8" y2="352.2"/>
<line class="st10" x1="478.5" y1="352" x2="1127.5" y2="351"/>
<rect x="479" y="361" class="st7" width="648" height="36"/>
<line class="st8" x1="623.5" y1="360.5" x2="623.5" y2="397.5"/>
<line class="st8" x1="803.5" y1="360.5" x2="803.5" y2="397.5"/>
<line class="st9" x1="983.5" y1="360.5" x2="983.5" y2="397.5"/>
<line class="st9" x1="1126.5" y1="360.5" x2="1126.5" y2="396.5"/>
<line class="st11" x1="1127.5" y1="400.5" x2="478.5" y2="401.5"/>
<line class="st9" x1="478" y1="360.5" x2="478" y2="397.5"/>
<line class="st10" x1="478" y1="398" x2="1127" y2="398"/>
<line class="st10" x1="478" y1="361" x2="1127" y2="361"/>
<rect x="478" y="406" class="st7" width="648" height="36"/>
<line class="st8" x1="623.5" y1="404.5" x2="623.5" y2="441.5"/>
<line class="st8" x1="803.5" y1="404.5" x2="803.5" y2="441.5"/>
<line class="st9" x1="983.5" y1="404.5" x2="983.5" y2="441.5"/>
<line class="st9" x1="1126.5" y1="404.5" x2="1126.5" y2="440.5"/>
<line class="st11" x1="1127.5" y1="444.5" x2="477.5" y2="445.5"/>
<line class="st9" x1="478" y1="404.5" x2="478" y2="441.5"/>
<line class="st10" x1="478" y1="441" x2="1127" y2="441"/>
<line class="st10" x1="478" y1="405" x2="1127" y2="405"/>
<rect x="479" y="451" class="st7" width="648" height="36"/>
<line class="st8" x1="623.5" y1="449.5" x2="623.5" y2="486.5"/>
<line class="st8" x1="803.5" y1="449.5" x2="803.5" y2="486.5"/>
<line class="st9" x1="983.5" y1="449.5" x2="983.5" y2="486.5"/>
<line class="st9" x1="1126.5" y1="449.5" x2="1126.5" y2="485.5"/>
<line class="st11" x1="1127.5" y1="490.5" x2="477.5" y2="491.5"/>
<line class="st9" x1="478.5" y1="449.5" x2="478.5" y2="486.5"/>
<line class="st10" x1="478" y1="487" x2="1127" y2="487"/>
<line class="st10" x1="478" y1="450" x2="1127" y2="450"/>
<rect x="479" y="316" class="st16" width="93" height="35"/>
<rect x="478" y="362" class="st16" width="91" height="35"/>
<rect x="478" y="406" class="st16" width="91" height="35"/>
<rect x="479" y="451" class="st16" width="86" height="35"/>
<rect x="588.6" y="328.6" class="st0" width="200.4" height="18.4"/>
<text transform="matrix(1 0 0 1 629.6318 341.4062)" class="st5 st17">Avg speed: 18.8 mph</text>
<rect x="590.6" y="371.6" class="st0" width="200.4" height="18.4"/>
<text transform="matrix(1 0 0 1 631.6318 384.4062)" class="st5 st17">Avg speed: 18.9 mph</text>
<rect x="592.6" y="415.6" class="st0" width="200.4" height="18.4"/>
<text transform="matrix(1 0 0 1 635.3149 428.4062)" class="st5 st17">Avg speed: 18.1mph</text>
<rect x="590.6" y="458.6" class="st0" width="200.4" height="18.4"/>
<text transform="matrix(1 0 0 1 631.6318 471.4062)" class="st5 st17">Avg speed: 17.5 mph</text>
<rect x="478" y="56" class="st7" width="648" height="36"/>
<line class="st8" x1="622.5" y1="39.5" x2="622.5" y2="92.5"/>
<line class="st9" x1="802.5" y1="41" x2="802.5" y2="92.5"/>
<line class="st9" x1="982.5" y1="39" x2="982.5" y2="92.5"/>
<line class="st9" x1="1125.5" y1="39" x2="1125.5" y2="91.5"/>
<line class="st10" x1="478" y1="56" x2="1126" y2="56"/>
<line class="st11" x1="1126.5" y1="96.5" x2="477.5" y2="97.5"/>
<rect x="354" y="108" class="st0" width="109" height="22"/>
<text transform="matrix(1 0 0 1 354 123.6636)" class="st12 st13">SciAutonics II</text>
<rect x="328" y="156.6" class="st0" width="133" height="23.4"/>
<text transform="matrix(1 0 0 1 328 172.2622)" class="st12 st13">Digital Auto Drive</text>
<rect x="399" y="198.6" class="st0" width="47" height="23.4"/>
<text transform="matrix(1 0 0 1 399 214.2627)" class="st12 st13">Golem </text>
<rect x="455.3" y="14" class="st0" width="52.7" height="27"/>
<text transform="matrix(1 0 0 1 455.4453 31.8496)"><tspan x="0" y="0" class="st14 st6">0</tspan><tspan x="12.7" y="0" class="st15 st4"> </tspan><tspan x="15.6" y="0" class="st5 st6">miles</tspan></text>
<rect x="753" y="17" class="st0" width="95" height="20"/>
<text transform="matrix(1 0 0 1 767.2891 34.8496)"><tspan x="0" y="0" class="st14 st6">75</tspan><tspan x="25.7" y="0" class="st5 st6"> miles</tspan></text>
<rect x="1068" y="13" class="st0" width="83" height="27"/>
<text transform="matrix(1 0 0 1 1073.1812 30.8496)"><tspan x="0" y="0" class="st14 st6">150</tspan><tspan x="31.9" y="0" class="st5 st6"> miles</tspan></text>
<line class="st9" x1="478.2" y1="40.8" x2="477.8" y2="93.2"/>
<line class="st10" x1="477.5" y1="93" x2="1126.5" y2="92"/>
<rect x="478" y="102" class="st7" width="648" height="36"/>
<line class="st8" x1="622.5" y1="101.5" x2="622.5" y2="138.5"/>
<line class="st8" x1="802.5" y1="101.5" x2="802.5" y2="138.5"/>
<line class="st9" x1="982.5" y1="101.5" x2="982.5" y2="138.5"/>
<line class="st9" x1="1125.5" y1="101.5" x2="1125.5" y2="137.5"/>
<line class="st11" x1="1126.5" y1="141.5" x2="477.5" y2="142.5"/>
<line class="st9" x1="477" y1="101.5" x2="477" y2="138.5"/>
<line class="st10" x1="477" y1="139" x2="1126" y2="139"/>
<line class="st10" x1="477" y1="102" x2="1126" y2="102"/>
<rect x="477" y="147" class="st7" width="648" height="36"/>
<line class="st8" x1="622.5" y1="145.5" x2="622.5" y2="182.5"/>
<line class="st8" x1="802.5" y1="145.5" x2="802.5" y2="182.5"/>
<line class="st9" x1="982.5" y1="145.5" x2="982.5" y2="182.5"/>
<line class="st9" x1="1125.5" y1="145.5" x2="1125.5" y2="181.5"/>
<line class="st11" x1="1126.5" y1="185.5" x2="477.5" y2="186.5"/>
<line class="st9" x1="477" y1="145.5" x2="477" y2="182.5"/>
<line class="st10" x1="477" y1="182" x2="1126" y2="182"/>
<line class="st10" x1="477" y1="146" x2="1126" y2="146"/>
<rect x="478" y="192" class="st7" width="648" height="36"/>
<line class="st8" x1="622.5" y1="190.5" x2="622.5" y2="227.5"/>
<line class="st8" x1="802.5" y1="190.5" x2="802.5" y2="227.5"/>
<line class="st9" x1="982.5" y1="190.5" x2="982.5" y2="227.5"/>
<line class="st9" x1="1125.5" y1="190.5" x2="1125.5" y2="226.5"/>
<line class="st11" x1="1126.5" y1="231.5" x2="477.5" y2="232.5"/>
<line class="st9" x1="477.5" y1="190.5" x2="477.5" y2="227.5"/>
<line class="st10" x1="477" y1="228" x2="1126" y2="228"/>
<line class="st10" x1="477" y1="191" x2="1126" y2="191"/>
<rect x="478" y="57" class="st16" width="93" height="35"/>
<rect x="477" y="103" class="st16" width="91" height="35"/>
<rect x="477" y="146" class="st16" width="91" height="35"/>
<rect x="478" y="192" class="st16" width="86" height="35"/>
<rect x="587.6" y="69.6" class="st0" width="200.4" height="18.4"/>
<text transform="matrix(1 0 0 1 626.3457 82.4062)" class="st5 st17">7.32 miles completed</text>
<rect x="590.6" y="114.6" class="st0" width="200.4" height="18.4"/>
<text transform="matrix(1 0 0 1 629.3457 127.4062)" class="st5 st17">6.71 miles completed</text>
<rect x="590.6" y="156.6" class="st0" width="200.4" height="18.4"/>
<text transform="matrix(1 0 0 1 629.3457 169.4062)" class="st5 st17">6.02 miles completed</text>
<rect x="590.6" y="199.6" class="st0" width="200.4" height="18.4"/>
<text transform="matrix(1 0 0 1 629.3457 212.4062)" class="st5 st17">5.21 miles completed</text>
<rect x="247" y="63" class="st0" width="218" height="22"/>
<text transform="matrix(1 0 0 1 247 78.6636)" class="st12 st13"> Carnegie Mellon, Sandstorm</text>
<rect x="478" y="579" class="st7" width="648" height="36"/>
<line class="st9" x1="802.5" y1="564" x2="802.5" y2="615.5"/>
<line class="st9" x1="1125.5" y1="562" x2="1125.5" y2="614.5"/>
<line class="st10" x1="478" y1="579" x2="1126" y2="579"/>
<line class="st11" x1="1126.5" y1="619.5" x2="477.5" y2="620.5"/>
<rect x="387" y="632" class="st0" width="73" height="23"/>
<text transform="matrix(1 0 0 1 387 647.6636)" class="st12 st13"> Stanford</text>
<rect x="337" y="588" class="st0" width="132" height="22"/>
<text transform="matrix(1 0 0 1 337 603.6636)" class="st12 st13"> Carnegie Mellon</text>
<rect x="429" y="723.6" class="st0" width="28" height="23.4"/>
<text transform="matrix(1 0 0 1 429 739.2622)" class="st12 st13">MIT</text>
<rect x="455.3" y="536" class="st0" width="52.7" height="27"/>
<text transform="matrix(1 0 0 1 459.3511 553.8496)"><tspan x="0" y="0" class="st14 st6">0</tspan><tspan x="12.7" y="0" class="st15 st4"> </tspan><tspan x="15.6" y="0" class="st5 st6">mph</tspan></text>
<rect x="767.3" y="540" class="st0" width="80.7" height="20"/>
<text transform="matrix(1 0 0 1 773.5181 557.8496)"><tspan x="0" y="0" class="st14 st6">17</tspan><tspan x="19" y="0" class="st15 st6">.</tspan><tspan x="23.4" y="0" class="st14 st6">5</tspan><tspan x="36.3" y="0" class="st15 st4"> </tspan><tspan x="39.3" y="0" class="st5 st6">mph</tspan></text>
<rect x="1088" y="536" class="st0" width="63" height="27"/>
<text transform="matrix(1 0 0 1 1090.7129 553.8496)"><tspan x="0" y="0" class="st14 st6">35</tspan><tspan x="26" y="0" class="st5 st4"> </tspan><tspan x="28.6" y="0" class="st5 st6">mph</tspan></text>
<line class="st9" x1="478.2" y1="563.8" x2="477.8" y2="616.2"/>
<line class="st10" x1="477.5" y1="616" x2="1126.5" y2="615"/>
<rect x="478" y="625" class="st7" width="648" height="36"/>
<line class="st8" x1="802.5" y1="624.5" x2="802.5" y2="661.5"/>
<line class="st9" x1="1125.5" y1="624.5" x2="1125.5" y2="660.5"/>
<line class="st11" x1="1126.5" y1="664.5" x2="477.5" y2="665.5"/>
<line class="st9" x1="477" y1="624.5" x2="477" y2="661.5"/>
<line class="st10" x1="477" y1="662" x2="1126" y2="662"/>
<line class="st10" x1="477" y1="625" x2="1126" y2="625"/>
<rect x="477" y="670" class="st7" width="648" height="36"/>
<line class="st8" x1="802.5" y1="668.5" x2="802.5" y2="705.5"/>
<line class="st9" x1="1125.5" y1="668.5" x2="1125.5" y2="704.5"/>
<line class="st11" x1="1126.5" y1="708.5" x2="477.5" y2="709.5"/>
<line class="st9" x1="477" y1="668.5" x2="477" y2="705.5"/>
<line class="st10" x1="477" y1="705" x2="1126" y2="705"/>
<line class="st10" x1="477" y1="669" x2="1126" y2="669"/>
<rect x="478" y="715" class="st7" width="648" height="36"/>
<line class="st8" x1="802.5" y1="713.5" x2="802.5" y2="750.5"/>
<line class="st9" x1="1125.5" y1="713.5" x2="1125.5" y2="749.5"/>
<line class="st11" x1="1126.5" y1="754.5" x2="478.5" y2="755.5"/>
<line class="st9" x1="477.5" y1="713.5" x2="477.5" y2="750.5"/>
<line class="st10" x1="477" y1="751" x2="1126" y2="751"/>
<line class="st10" x1="477" y1="714" x2="1126" y2="714"/>
<rect x="478" y="580" class="st16" width="93" height="35"/>
<rect x="477" y="626" class="st16" width="91" height="35"/>
<rect x="477" y="670" class="st16" width="91" height="35"/>
<rect x="478" y="715" class="st16" width="86" height="35"/>
<rect x="587.6" y="592.6" class="st0" width="200.4" height="18.4"/>
<text transform="matrix(1 0 0 1 628.6318 605.4062)" class="st5 st17">Avg speed: 14.4 mph</text>
<rect x="618.6" y="635.6" class="st0" width="200.4" height="18.4"/>
<text transform="matrix(1 0 0 1 659.6318 648.4062)" class="st5 st17">Avg speed: 13.4 mph</text>
<rect x="652.6" y="678.6" class="st0" width="200.4" height="18.4"/>
<text transform="matrix(1 0 0 1 699.0049 691.4062)" class="st5 st17">Avg speed: 13 mph</text>
<rect x="687.6" y="724.6" class="st0" width="200.4" height="18.4"/>
<text transform="matrix(1 0 0 1 734.0049 737.4062)" class="st5 st17">Avg speed: 10 mph</text>
<rect x="369" y="677" class="st0" width="95" height="23"/>
<text transform="matrix(1 0 0 1 369 692.6636)" class="st12 st13">Virgina Tech</text>
<rect x="26" y="369.1" class="st0" width="191.1" height="101.9"/>
<text transform="matrix(1 0 0 1 26 384.0571)"><tspan x="0" y="0" class="st5 st6">Terrain: Off-road</tspan><tspan x="0" y="25.2" class="st5 st6">Distance: 132 miles</tspan><tspan x="0" y="50.4" class="st5 st6">Speed Limit: 65 mph</tspan><tspan x="0" y="75.6" class="st5 st6">Course Time Limit: 10 hrs</tspan></text>
<rect x="29.6" y="633.1" class="st0" width="169.5" height="99.9"/>
<text transform="matrix(1 0 0 1 29.6099 648.0571)"><tspan x="0" y="0" class="st5 st6">Terrain: Urban course</tspan><tspan x="0" y="25.2" class="st5 st6">Distance: 60 miles</tspan><tspan x="0" y="50.4" class="st5 st6">Speed Limit: 35 mph</tspan><tspan x="0" y="75.6" class="st5 st6">Course Time Limit: 6 hrs</tspan></text>
<line class="st8" x1="623.5" y1="580" x2="623.5" y2="617"/>
<line class="st8" x1="623.5" y1="626" x2="623.5" y2="663"/>
<line class="st8" x1="623.5" y1="669" x2="623.5" y2="706"/>
<line class="st8" x1="623.5" y1="715" x2="623.5" y2="752"/>
<line class="st8" x1="983.5" y1="578" x2="983.5" y2="615"/>
<line class="st8" x1="983.5" y1="624" x2="983.5" y2="661"/>
<line class="st8" x1="983.5" y1="668" x2="983.5" y2="705"/>
<line class="st8" x1="983.5" y1="713" x2="983.5" y2="750"/>
<rect x="1174.3" y="575.3" class="st0" width="156.7" height="172.7"/>
<text transform="matrix(1 0 0 1 1174.333 585.3008)"><tspan x="0" y="0" class="st3 st4">The third DARPA competition was </tspan><tspan x="0" y="16.8" class="st3 st4">held in 2007 and was held on the </tspan><tspan x="0" y="33.6" class="st3 st4">George Air Force Base. The terrain </tspan><tspan x="0" y="50.4" class="st3 st4">changed again to an urban setting in </tspan><tspan x="0" y="67.2" class="st3 st4">which all vehicles had to obey traffic </tspan><tspan x="0" y="84" class="st3 st4">laws, manage other traffic, and </tspan><tspan x="0" y="100.8" class="st3 st4">merging into traffic.</tspan><tspan x="84.3" y="100.8" class="st3 st4"> </tspan><tspan x="86.8" y="100.8" class="st3 st4"> The time limit </tspan><tspan x="0" y="117.6" class="st3 st4">for this course was 6 hours in which </tspan><tspan x="0" y="134.4" class="st3 st4">6 teams completed the race and only </tspan><tspan x="0" y="151.2" class="st3 st4">4 finished within the time limit.</tspan></text>
<rect x="1163.3" y="333.7" class="st0" width="161.7" height="142.3"/>
<text transform="matrix(1 0 0 1 1163.333 343.6343)"><tspan x="0" y="0" class="st3 st4">The second DARPA challenge was </tspan><tspan x="0" y="16.8" class="st3 st4">held in 2005 where the course had </tspan><tspan x="0" y="33.6" class="st3 st4">been changed to an off-road setting </tspan><tspan x="0" y="50.4" class="st3 st4">with more curves, and narrow paths.</tspan><tspan x="0" y="84" class="st3 st4">By this point, autonomous vehicle </tspan><tspan x="0" y="100.8" class="st3 st4">technology had advanced to a level </tspan><tspan x="0" y="117.6" class="st3 st4">where all but one vehicle completed </tspan></text>
<line class="st18" x1="1043.5" y1="256.5" x2="1025.5" y2="256.5"/>
<line class="st18" x1="1017" y1="256.5" x2="999" y2="256.5"/>
<line class="st18" x1="990" y1="256.5" x2="972" y2="256.5"/>
<line class="st18" x1="962.5" y1="256.5" x2="944.5" y2="256.5"/>
<line class="st18" x1="936" y1="256.5" x2="918" y2="256.5"/>
<line class="st18" x1="908.5" y1="256.5" x2="890.5" y2="256.5"/>
<line class="st18" x1="882" y1="256.5" x2="864" y2="256.5"/>
<line class="st18" x1="854.5" y1="256.5" x2="836.5" y2="256.5"/>
<line class="st18" x1="828" y1="256.5" x2="810" y2="256.5"/>
<line class="st18" x1="801" y1="256.5" x2="783" y2="256.5"/>
<line class="st18" x1="773.5" y1="256.5" x2="755.5" y2="256.5"/>
<line class="st18" x1="747" y1="256.5" x2="729" y2="256.5"/>
<line class="st18" x1="719.5" y1="256.5" x2="701.5" y2="256.5"/>
<line class="st18" x1="693" y1="256.5" x2="675" y2="256.5"/>
<line class="st18" x1="665.5" y1="256.5" x2="647.5" y2="256.5"/>
<line class="st18" x1="639" y1="256.5" x2="621" y2="256.5"/>
<line class="st18" x1="612" y1="256.5" x2="594" y2="256.5"/>
<line class="st18" x1="584.5" y1="256.5" x2="566.5" y2="256.5"/>
<line class="st18" x1="558" y1="256.5" x2="540" y2="256.5"/>
<line class="st18" x1="530.5" y1="256.5" x2="512.5" y2="256.5"/>
<line class="st18" x1="504" y1="256.5" x2="486" y2="256.5"/>
<line class="st18" x1="476.5" y1="256.5" x2="458.5" y2="256.5"/>
<line class="st18" x1="450" y1="256.5" x2="432" y2="256.5"/>
<line class="st18" x1="423" y1="256.5" x2="405" y2="256.5"/>
<line class="st18" x1="395.5" y1="256.5" x2="377.5" y2="256.5"/>
<line class="st18" x1="369" y1="256.5" x2="351" y2="256.5"/>
<line class="st18" x1="341.5" y1="256.5" x2="323.5" y2="256.5"/>
<line class="st18" x1="315" y1="256.5" x2="297" y2="256.5"/>
<line class="st18" x1="287.5" y1="256.5" x2="269.5" y2="256.5"/>
<line class="st18" x1="261" y1="256.5" x2="243" y2="256.5"/>
<line class="st18" x1="233.5" y1="256.5" x2="215.5" y2="256.5"/>
<line class="st18" x1="207" y1="256.5" x2="189" y2="256.5"/>
<line class="st18" x1="179.5" y1="256.5" x2="161.5" y2="256.5"/>
<line class="st18" x1="153" y1="256.5" x2="135" y2="256.5"/>
<line class="st18" x1="126" y1="256.5" x2="108" y2="256.5"/>
<line class="st18" x1="98.5" y1="256.5" x2="80.5" y2="256.5"/>
<line class="st18" x1="72" y1="256.5" x2="54" y2="256.5"/>
<line class="st18" x1="44.5" y1="256.5" x2="26.5" y2="256.5"/>
<line class="st18" x1="18" y1="256.5" x2="0" y2="256.5"/>
<line class="st18" x1="1340.5" y1="256.5" x2="1322.5" y2="256.5"/>
<line class="st18" x1="1314" y1="256.5" x2="1296" y2="256.5"/>
<line class="st18" x1="1286.5" y1="256.5" x2="1268.5" y2="256.5"/>
<line class="st18" x1="1260" y1="256.5" x2="1242" y2="256.5"/>
<line class="st18" x1="1232.5" y1="256.5" x2="1214.5" y2="256.5"/>
<line class="st18" x1="1206" y1="256.5" x2="1188" y2="256.5"/>
<line class="st18" x1="1179" y1="256.5" x2="1161" y2="256.5"/>
<line class="st18" x1="1151.5" y1="256.5" x2="1133.5" y2="256.5"/>
<line class="st18" x1="1125" y1="256.5" x2="1107" y2="256.5"/>
<line class="st18" x1="1097.5" y1="256.5" x2="1079.5" y2="256.5"/>
<line class="st18" x1="1071" y1="256.5" x2="1053" y2="256.5"/>
<line class="st18" x1="1364.5" y1="256.5" x2="1350" y2="256.5"/>
<line class="st18" x1="1043.5" y1="517.5" x2="1025.5" y2="517.5"/>
<line class="st18" x1="1017" y1="517.5" x2="999" y2="517.5"/>
<line class="st18" x1="990" y1="517.5" x2="972" y2="517.5"/>
<line class="st18" x1="962.5" y1="517.5" x2="944.5" y2="517.5"/>
<line class="st18" x1="936" y1="517.5" x2="918" y2="517.5"/>
<line class="st18" x1="908.5" y1="517.5" x2="890.5" y2="517.5"/>
<line class="st18" x1="882" y1="517.5" x2="864" y2="517.5"/>
<line class="st18" x1="854.5" y1="517.5" x2="836.5" y2="517.5"/>
<line class="st18" x1="828" y1="517.5" x2="810" y2="517.5"/>
<line class="st18" x1="801" y1="517.5" x2="783" y2="517.5"/>
<line class="st18" x1="773.5" y1="517.5" x2="755.5" y2="517.5"/>
<line class="st18" x1="747" y1="517.5" x2="729" y2="517.5"/>
<line class="st18" x1="719.5" y1="517.5" x2="701.5" y2="517.5"/>
<line class="st18" x1="693" y1="517.5" x2="675" y2="517.5"/>
<line class="st18" x1="665.5" y1="517.5" x2="647.5" y2="517.5"/>
<line class="st18" x1="639" y1="517.5" x2="621" y2="517.5"/>
<line class="st18" x1="612" y1="517.5" x2="594" y2="517.5"/>
<line class="st18" x1="584.5" y1="517.5" x2="566.5" y2="517.5"/>
<line class="st18" x1="558" y1="517.5" x2="540" y2="517.5"/>
<line class="st18" x1="530.5" y1="517.5" x2="512.5" y2="517.5"/>
<line class="st18" x1="504" y1="517.5" x2="486" y2="517.5"/>
<line class="st18" x1="476.5" y1="517.5" x2="458.5" y2="517.5"/>
<line class="st18" x1="450" y1="517.5" x2="432" y2="517.5"/>
<line class="st18" x1="423" y1="517.5" x2="405" y2="517.5"/>
<line class="st18" x1="395.5" y1="517.5" x2="377.5" y2="517.5"/>
<line class="st18" x1="369" y1="517.5" x2="351" y2="517.5"/>
<line class="st18" x1="341.5" y1="517.5" x2="323.5" y2="517.5"/>
<line class="st18" x1="315" y1="517.5" x2="297" y2="517.5"/>
<line class="st18" x1="287.5" y1="517.5" x2="269.5" y2="517.5"/>
<line class="st18" x1="261" y1="517.5" x2="243" y2="517.5"/>
<line class="st18" x1="233.5" y1="517.5" x2="215.5" y2="517.5"/>
<line class="st18" x1="207" y1="517.5" x2="189" y2="517.5"/>
<line class="st18" x1="179.5" y1="517.5" x2="161.5" y2="517.5"/>
<line class="st18" x1="153" y1="517.5" x2="135" y2="517.5"/>
<line class="st18" x1="126" y1="517.5" x2="108" y2="517.5"/>
<line class="st18" x1="98.5" y1="517.5" x2="80.5" y2="517.5"/>
<line class="st18" x1="72" y1="517.5" x2="54" y2="517.5"/>
<line class="st18" x1="44.5" y1="517.5" x2="26.5" y2="517.5"/>
<line class="st18" x1="18" y1="517.5" x2="0" y2="517.5"/>
<line class="st18" x1="1340.5" y1="517.5" x2="1322.5" y2="517.5"/>
<line class="st18" x1="1314" y1="517.5" x2="1296" y2="517.5"/>
<line class="st18" x1="1286.5" y1="517.5" x2="1268.5" y2="517.5"/>
<line class="st18" x1="1260" y1="517.5" x2="1242" y2="517.5"/>
<line class="st18" x1="1232.5" y1="517.5" x2="1214.5" y2="517.5"/>
<line class="st18" x1="1206" y1="517.5" x2="1188" y2="517.5"/>
<line class="st18" x1="1179" y1="517.5" x2="1161" y2="517.5"/>
<line class="st18" x1="1151.5" y1="517.5" x2="1133.5" y2="517.5"/>
<line class="st18" x1="1125" y1="517.5" x2="1107" y2="517.5"/>
<line class="st18" x1="1097.5" y1="517.5" x2="1079.5" y2="517.5"/>
<line class="st18" x1="1071" y1="517.5" x2="1053" y2="517.5"/>
<line class="st18" x1="1371.5" y1="521.5" x2="1365" y2="521.5"/>
<line class="st18" x1="1365.5" y1="517.5" x2="1353" y2="517.5"/>
</svg>
